# AST/ASF file generated using VICON BodyLanguage
# -----------------------------------------------
:version 1.10
:name VICON
:units
  mass 1.0
  length 0.45
  angle deg
:documentation
   .ast/.asf automatically generated from VICON data using
   VICON BodyBuilder and BodyLanguage model FoxedUp or BRILLIANT.MOD
:root
   order TX TY TZ RX RY RZ
   axis XYZ
   position 0 0 0  
   orientation 0 0 0 
:bonedata
  begin
     id 1 
     name lhipjoint
     direction 0.660183 -0.676772 0.325788 
     length 2.75133 
     axis 0 0 0  XYZ
  end
  begin
     id 2 
     name lfemur
     direction 0.34202 -0.939693 0  
     length 7.70317  
     axis 0 0 20  XYZ
    dof rx ry rz
    limits (-160.0 20.0)
           (-70.0 70.0)
           (-60.0 70.0)
  end
  begin
     id 3 
     name ltibia
     direction 0.342105 -0.939662 0   
     length 7.18701   
     axis 0 0 20   XYZ
    dof rx
    limits (-10.0 170.0)
  end
  begin
     id 4 
     name lfoot
     direction 0.14163 -0.389126 0.910232   
     length 2.41719   
     axis -90 7.62852e-016 20   XYZ
    dof rx rz
    limits (-45.0 90.0)
           (-70.0 20.0)
  end
  begin
     id 5 
     name ltoes
     direction 1.53533e-011 -4.21926e-011 1   
     length 1.18611   
     axis -90 7.62852e-016 20   XYZ
    dof rx
    limits (-90.0 20.0)
  end
  begin
     id 6 
     name rhipjoint
     direction -0.6658 -0.67229 0.323631   
     length 2.76968  
     axis 0 0 0  XYZ 
  end
  begin
     id 7 
     name rfemur
     direction -0.34202 -0.939693 0   
     length 7.92547   
     axis 0 0 -20   XYZ
    dof rx ry rz
    limits (-160.0 20.0)
           (-70.0 70.0)
           (-70.0 60.0)
  end
  begin
     id 8 
     name rtibia
     direction -0.342022 -0.939692 0   
     length 7.22641   
     axis 0 0 -20   XYZ
    dof rx
    limits (-10.0 170.0)
 end
 begin
     id 9 
     name rfoot
     direction -0.105675 -0.29034 0.951071   
     length 2.48149  
     axis -90 -7.62852e-016 -20   XYZ
    dof rx rz
    limits (-45.0 90.0)
           (-20.0 70.0)
  end
  begin
     id 10 
     name rtoes
     direction -1.5349e-011 -4.21859e-011 1   
     length 1.23343   
     axis -90 -7.62852e-016 -20   XYZ
    dof rx
    limits (-90.0 20.0)
  end
  begin
     id 11 
     name lowerback
     direction 0.0104173 0.993624 -0.112266   
     length 2.00527   
     axis 0 0 0   XYZ
    dof rx ry rz
    limits (-20.0 45.0)
           (-30.0 30.0)
           (-30.0 30.0)
  end
  begin
     id 12 
     name upperback
     direction 0.00733149 0.999856 -0.0152913   
     length 2.01385   
     axis 0 0 0   XYZ
    dof rx ry rz
    limits (-20.0 45.0)
           (-30.0 30.0)
           (-30.0 30.0)
  end
  begin
     id 13 
     name thorax
     direction 0.0026304 0.999318 0.036841   
     length 2.03734   
     axis 0 0 0   XYZ
    dof rx ry rz
    limits (-20.0 45.0)
           (-30.0 30.0)
           (-30.0 30.0)
  end
  begin
     id 14 
     name lowerneck
     direction 0.0293154 0.998757 0.0403082   
     length 1.65303   
     axis 0 0 0   XYZ
    dof rx ry rz
    limits (-20.0 45.0)
           (-30.0 30.0)
           (-30.0 30.0)
  end
  begin
     id 15 
     name upperneck
     direction -0.0376619 0.998184 -0.0470083   
     length 1.60926   
     axis 0 0 0   XYZ
    dof rx ry rz
    limits (-20.0 45.0)
           (-30.0 30.0)
           (-30.0 30.0)
  end
  begin
     id 16
     name head
     direction -0.0170133 0.999635 -0.0209778  
     length 1.73625  
     axis 0 0 0   XYZ
    dof rx ry rz
    limits (-20.0 45.0)
           (-30.0 30.0)
           (-30.0 30.0)
  end
  begin
     id 17 
     name lclavicle
     direction 0.919857 0.39181 -0.0186333  
     length 3.75313  
     axis 0 0 0   XYZ
    dof ry rz
    limits (-20.0 10.0)
           (0.0 20.0)
  end
  begin
     id 18 
     name lhumerus
     direction 1 -4.48988e-011 1.44029e-027   
     length 5.49313   
     axis 180 -30 -90   XYZ
    dof rx ry rz
    limits (-60.0 90.0)
           (-90.0 90.0)
           (-90.0 90.0)
  end
  begin
     id 19
     name lradius
     direction 1 -4.48924e-011 7.46281e-027   
     length 3.29037   
     axis 180 -30 -90   XYZ
    dof rx
    limits (-10.0 170.0)
  end
  begin
     id 20
     name lwrist
     direction 1 -4.48955e-011 2.19879e-026   
     length 1.64519   
     axis -1.34358e-014 90 90   XYZ
    dof ry
    limits (-180.0 0.0)
 end
  begin
     id 21 
     name lhand
     direction 1 -4.48978e-011 4.39747e-026   
     length 0.729656   
     axis -2.80598e-014 90 90   XYZ
    dof rx rz
    limits (-90.0 90.0)
           (-45.0 45.0)
  end
  begin
     id 22 
     name lfingers
     direction 1 -4.49071e-011 8.79411e-026   
     length 0.588268   
     axis -5.61193e-014 90 90   XYZ
    dof rx
    limits (0.0 90.0)
  end
  begin
     id 23
     name lthumb
     direction 0.707107 -6.34817e-011 0.707107   
     length 0.844638   
     axis -90 45 -9.86923e-015   XYZ
    dof rx rz
    limits (-45.0 45.0)
           (-45.0 45.0)
  end
  begin
     id 24 
     name rclavicle
     direction -0.919898 0.388279 0.0550233   
     length 3.7171  
     axis 0 0 0   XYZ 
    dof ry rz
    limits (-10.0 20.0)
           (-20.0 0.0)
  end
  begin
     id 25 
     name rhumerus
     direction -1 -4.48968e-011 9.98372e-028  
     length 5.23684   
     axis 180 30 90   XYZ
    dof rx ry rz
    limits (-90.0 60.0)
           (-90.0 90.0)
           (-90.0 90.0)
  end
  begin
     id 26 
     name rradius
     direction -1 -4.48956e-011 1.01023e-026   
     length 3.38251   
     axis 180 30 90   XYZ
    dof rx
    limits (-10.0 170.0)
  end
  begin
     id 27 
     name rwrist
     direction -1 -4.4892e-011 2.19886e-026   
     length 1.69126   
     axis -1.34358e-014 -90 -90   XYZ
    dof ry
    limits (-180.0 0.0)
  end
  begin
     id 28
     name rhand
     direction -1 -4.49024e-011 4.39727e-026   
     length 0.691454   
     axis -2.80598e-014 -90 -90   XYZ
    dof rx rz
    limits (-90.0 90.0)
           (-45.0 45.0)
  end
  begin
     id 29
     name rfingers
     direction -1 -4.49097e-011 8.79388e-026   
     length 0.557468   
     axis -5.61193e-014 -90 -90   XYZ
    dof rx
    limits (0.0 90.0)
  end
  begin
     id 30
     name rthumb
     direction -0.707107 -6.34938e-011 0.707107   
     length 0.800416   
     axis -90 -45 9.86923e-015   XYZ
    dof rx rz
    limits (-45.0 45.0)
           (-45.0 45.0)
  end
:hierarchy
  begin
    root lhipjoint rhipjoint lowerback
    lhipjoint lfemur
    lfemur ltibia
    ltibia lfoot
    lfoot ltoes
    rhipjoint rfemur
    rfemur rtibia
    rtibia rfoot
    rfoot rtoes
    lowerback upperback
    upperback thorax
    thorax lowerneck lclavicle rclavicle
    lowerneck upperneck
    upperneck head
    lclavicle lhumerus
    lhumerus lradius
    lradius lwrist
    lwrist lhand lthumb
    lhand lfingers
    rclavicle rhumerus
    rhumerus rradius
    rradius rwrist
    rwrist rhand rthumb
    rhand rfingers
  end

#!OML:ASF H:\BabyWalks\Project 1\Capture day 1\Session 1\baby.ASF
:FULLY-SPECIFIED
:DEGREES
112
root -37.6786 17.5101 15.2583 -14.1831 78.5333 -17.9983
lowerback 16.8745 -0.623527 4.39288
upperback 5.88476 0.190095 0.411753
thorax -3.16105 0.238657 -2.09606
lowerneck -0.242107 2.64308 6.42538
upperneck 1.09059 3.55227 -5.65117
head 0.621515 1.77715 -2.89756
rclavicle -1.83627e-014 -4.17448e-015
rhumerus -45.7743 10.8566 -85.963
rradius 38.254
rwrist 0.156699
rhand -7.89078 -16.5727
rfingers 7.12502
rthumb 18.0139 -45.7584
lclavicle -1.83627e-014 -4.17448e-015
lhumerus -45.5532 -3.59813 81.4638
lradius 43.901
lwrist 5.91451
lhand 0.565809 14.6433
lfingers 7.12502
lthumb 26.1322 42.8651
rfemur 12.3112 -1.55061 26.9091
rtibia -3.18055e-015
rfoot -17.2551 -23.8916
rtoes 7.73223
lfemur -20.3146 -2.65444 -18.4433
ltibia 36.8265
lfoot -18.3277 8.73524
ltoes -3.19317
113
root -37.6534 17.5025 15.2444 -14.8405 79.0735 -18.8448
lowerback 16.9005 -0.764449 4.70707
upperback 5.8669 0.0547866 0.310211
thorax -3.20054 0.174025 -2.35543
lowerneck -0.347174 2.57049 6.48879
upperneck 1.00789 3.44491 -5.57503
head 0.606173 1.72226 -2.88407
rclavicle 2.18663e-014 1.51076e-014
rhumerus -45.8198 10.7237 -86.0375
rradius 38.3426
rwrist 0.134054
rhand -7.91336 -16.5286
rfingers 7.12502
rthumb 17.9922 -45.7164
lclavicle 2.18663e-014 1.51076e-014
lhumerus -45.5337 -3.71467 81.3994
lradius 43.9106
lwrist 5.91277
lhand 0.536336 14.6214
lfingers 7.12502
lthumb 26.104 42.8473
rfemur 12.2112 -2.07619 26.8649
rtibia 6.67916e-014
rfoot -17.4411 -23.852
rtoes 7.71414
lfemur -20.6305 -3.08972 -18.4927
ltibia 37.0494
lfoot -18.3055 8.66708
ltoes -4.02113
114
root -37.6266 17.4938 15.2257 -15.8128 79.7633 -20.0306
lowerback 16.9008 -0.972558 5.1246
upperback 5.84455 -0.153625 0.193417
thorax -3.23847 0.0738777 -2.67528
lowerneck -0.457462 2.49584 6.55532
upperneck 0.918816 3.33421 -5.49292
head 0.589459 1.66563 -2.86918
rclavicle -2.70347e-014 -1.38155e-014
rhumerus -45.8715 10.5991 -86.1216
rradius 38.4401
rwrist 0.0807198
rhand -7.92448 -16.497
rfingers 7.12502
rthumb 17.9815 -45.6857
lclavicle -2.70347e-014 -1.38155e-014
lhumerus -45.5167 -3.82349 81.3235
lradius 43.9354
lwrist 5.89758
lhand 0.512418 14.6024
lfingers 7.12502
lthumb 26.0811 42.8317
rfemur 12.0896 -2.75314 26.8073
rtibia -3.18055e-014
rfoot -17.6401 -23.8107
rtoes 7.69279
lfemur -21.0002 -3.7003 -18.5563
ltibia 37.2791
lfoot -18.2735 8.60931
ltoes -4.69249
115
root -37.5991 17.4845 15.2043 -17.1256 80.5728 -21.5905
lowerback 16.8658 -1.22972 5.60846
upperback 5.81619 -0.418508 0.063929
thorax -3.27287 -0.0540546 -3.03521
lowerneck -0.574073 2.41754 6.62783
upperneck 0.824619 3.21802 -5.4056
head 0.5719 1.60617 -2.85372
rclavicle 2.47984e-014 5.96354e-016
rhumerus -45.9277 10.4821 -86.2189
rradius 38.5492
rwrist -0.00876756
rhand -7.91728 -16.4989
rfingers 7.12502
rthumb 17.9884 -45.687
lclavicle 2.47984e-014 5.96354e-016
lhumerus -45.4974 -3.92731 81.2346
lradius 43.9722
lwrist 5.87417
lhand 0.508911 14.6035
lfingers 7.12502
lthumb 26.0777 42.8333
rfemur 11.937 -3.55167 26.7361
rtibia 1.90833e-014
rfoot -17.8724 -23.7591
rtoes 7.73728
lfemur -21.4264 -4.46988 -18.6321
ltibia 37.5106
lfoot -18.2365 8.57034
ltoes -5.18958
116
root -37.5702 17.4752 15.183 -18.7254 81.4022 -23.4617
lowerback 16.7923 -1.48858 6.09059
upperback 5.78926 -0.68942 -0.0668144
thorax -3.29102 -0.184906 -3.39455
lowerneck -0.686352 2.33506 6.70048
upperneck 0.717498 3.09615 -5.31251
head 0.549019 1.54388 -2.83656
rclavicle 2.23633e-015 -6.36111e-015
rhumerus -45.9798 10.3715 -86.3195
rradius 38.6539
rwrist -0.114009
rhand -7.89574 -16.4923
rfingers 7.12502
rthumb 18.0092 -45.6786
lclavicle 2.23633e-015 -6.36111e-015
lhumerus -45.4707 -4.02718 81.1403
lradius 44.0152
lwrist 5.84737
lhand 0.505199 14.606
lfingers 7.12502
lthumb 26.0742 42.8363
rfemur 11.7659 -4.37397 26.661
rtibia -3.49861e-014
rfoot -18.1086 -23.6991
rtoes 7.78716
lfemur -21.875 -5.31251 -18.7083
ltibia 37.7376
lfoot -18.2275 8.56316
ltoes -5.39091
117
root -37.5401 17.4664 15.1647 -20.4918 82.1666 -25.5146
lowerback 16.7019 -1.71135 6.5124
upperback 5.76162 -0.925109 -0.193406
thorax -3.30161 -0.29901 -3.72258
lowerneck -0.789989 2.24926 6.77403
upperneck 0.602018 2.9702 -5.21342
head 0.521644 1.4796 -2.81776
rclavicle -1.49089e-015 3.18055e-015
rhumerus -46.0323 10.2724 -86.4286
rradius 38.7552
rwrist -0.236623
rhand -7.85292 -16.4983
rfingers 7.12502
rthumb 18.0504 -45.6808
lclavicle -1.49089e-015 3.18055e-015
lhumerus -45.4417 -4.12409 81.0393
lradius 44.0594
lwrist 5.82343
lhand 0.500334 14.6259
lfingers 7.12502
lthumb 26.0695 42.8569
rfemur 11.5855 -5.13552 26.592
rtibia 1.90833e-014
rfoot -18.3249 -23.6405
rtoes 7.80742
lfemur -22.317 -6.13579 -18.774
ltibia 37.9541
lfoot -18.2433 8.584
ltoes -5.52133
118
root -37.5088 17.4584 15.1515 -22.2872 82.8042 -27.6001
lowerback 16.6128 -1.86875 6.83197
upperback 5.73733 -1.09196 -0.306262
thorax -3.30384 -0.379767 -3.99186
lowerneck -0.88451 2.16098 6.84809
upperneck 0.477446 2.84142 -5.10982
head 0.489582 1.41393 -2.79773
rclavicle 5.1684e-015 -2.18663e-015
rhumerus -46.0817 10.185 -86.5403
rradius 38.8486
rwrist -0.359805
rhand -7.80948 -16.4994
rfingers 7.12502
rthumb 18.0921 -45.6779
lclavicle 5.1684e-015 -2.18663e-015
lhumerus -45.3993 -4.22338 80.9391
lradius 44.0912
lwrist 5.80666
lhand 0.494617 14.6319
lfingers 7.12502
lthumb 26.064 42.8637
rfemur 11.4089 -5.77539 26.5443
rtibia 2.22639e-014
rfoot -18.5478 -23.5744
rtoes 7.86715
lfemur -22.7269 -6.85314 -18.8147
ltibia 38.1557
lfoot -18.291 8.61607
ltoes -5.62299
